<?xml version="1.0" standalone="no"?>
<!DOCTYPE svg PUBLIC "-//W3C//DTD SVG 20010904//EN"
 "http://www.w3.org/TR/2001/REC-SVG-20010904/DTD/svg10.dtd">
<svg version="1.0" xmlns="http://www.w3.org/2000/svg"
 width="800.000000pt" height="160.000000pt" viewBox="0 0 800.000000 160.000000"
 preserveAspectRatio="xMidYMid meet">
<metadata>
Created by potrace 1.16, written by Peter Selinger 2001-2019
</metadata>
<g transform="translate(0.000000,160.000000) scale(0.100000,-0.100000)"
fill="#000000" stroke="none">
<path d="M40 1452 c-35 -28 -16 -47 19 -21 23 17 32 19 50 10 41 -23 17 -50
-45 -51 -24 0 -54 -29 -54 -52 0 -39 66 -61 111 -38 13 7 19 7 19 0 0 -5 6
-10 13 -10 20 0 10 151 -11 168 -23 18 -76 15 -102 -6z"/>
</g>
</svg>
