<?xml version="1.0" standalone="no"?>
<!DOCTYPE svg PUBLIC "-//W3C//DTD SVG 20010904//EN"
 "http://www.w3.org/TR/2001/REC-SVG-20010904/DTD/svg10.dtd">
<svg version="1.0" xmlns="http://www.w3.org/2000/svg"
 width="502.000000pt" height="224.000000pt" viewBox="0 0 502.000000 224.000000"
 preserveAspectRatio="xMidYMid meet">
<metadata>
Created by potrace 1.16, written by Peter Selinger 2001-2019
</metadata>
<g transform="translate(0.000000,224.000000) scale(0.100000,-0.100000)"
fill="#000000" stroke="none">
<path d="M2104 1685 l-430 -33 -335 -126 c-292 -110 -338 -130 -364 -160 -16
-19 -93 -103 -170 -186 l-140 -152 -3 201 c-1 110 -6 201 -11 201 -4 0 -13 18
-20 40 -22 75 -98 95 -145 39 -14 -17 -26 -38 -26 -48 0 -9 -4 -21 -10 -27 -5
-5 -10 -112 -11 -252 l-1 -242 -140 0 -139 0 3 -37 3 -38 138 -3 137 -3 0
-124 c0 -121 -1 -124 -23 -127 -14 -2 -23 -11 -25 -25 -2 -15 -10 -23 -22 -23
-28 0 -41 -33 -38 -98 l3 -57 210 0 210 0 3 63 c3 68 -7 92 -39 92 -13 0 -19
7 -19 21 0 12 -8 23 -20 26 -16 4 -20 14 -20 52 0 45 4 52 71 124 l71 77 1741
0 1742 -1 73 -80 c66 -73 72 -83 72 -123 0 -39 -3 -45 -22 -48 -15 -2 -24 -11
-26 -25 -2 -15 -10 -23 -22 -23 -28 0 -41 -33 -38 -98 l3 -57 213 -3 212 -2 0
68 c0 70 -10 92 -42 92 -12 0 -18 7 -18 21 0 12 -8 23 -20 26 -19 5 -20 14
-20 129 l0 123 103 3 102 3 0 35 0 35 -102 3 -103 3 0 244 c0 135 -4 245 -9
245 -5 0 -11 14 -15 30 -15 78 -102 107 -150 49 -14 -17 -26 -38 -26 -48 0 -9
-5 -22 -11 -28 -7 -7 -10 -79 -9 -207 1 -196 -3 -218 -32 -177 -14 20 -207
229 -288 312 -43 44 -59 51 -370 168 l-325 121 -320 25 c-176 13 -367 27 -425
30 -58 4 -112 8 -120 9 -8 2 -209 -11 -446 -29z m616 -71 c96 -37 179 -70 183
-74 9 -8 -323 -90 -362 -90 -33 0 -372 83 -365 89 6 6 345 138 359 140 5 1 88
-29 185 -65z m-460 -5 l-154 -60 -156 38 -155 38 80 8 c140 14 418 34 480 35
l60 1 -155 -60z m742 40 c150 -11 274 -22 276 -23 1 -2 -65 -20 -148 -40
l-151 -37 -147 56 c-80 31 -148 58 -151 61 -7 7 40 5 321 -17z m-1090 -87 c65
-15 120 -30 123 -33 2 -3 -80 -37 -183 -76 l-187 -70 -134 6 -133 6 63 51 c35
28 99 78 141 112 l77 60 58 -13 c32 -8 111 -27 175 -43z m1635 -57 l138 -110
-135 -6 -135 -7 -190 74 c-104 40 -188 74 -185 74 3 1 84 21 180 45 96 24 178
42 182 42 3 -1 68 -51 145 -112z m-2002 49 c-16 -14 -70 -55 -120 -93 l-90
-67 -113 5 -112 6 227 87 c126 47 230 87 233 87 3 0 -8 -11 -25 -25z m2207
-66 c120 -45 217 -83 215 -84 -1 -1 -52 -4 -113 -6 l-110 -5 -113 89 c-62 48
-109 88 -105 88 5 0 107 -37 226 -82z m-1482 -12 c74 -18 128 -36 120 -39 -8
-3 -130 -12 -270 -21 -140 -10 -268 -20 -285 -23 -53 -9 -15 13 85 50 52 20
111 43 130 51 49 21 67 20 220 -18z m857 -18 c145 -54 184 -75 123 -65 -19 3
-153 14 -297 24 -145 9 -263 20 -263 23 0 8 237 68 272 69 15 1 90 -22 165
-51z m-602 -283 l0 -230 -402 -3 -403 -2 0 205 c0 204 0 205 23 209 37 9 678
54 732 52 l50 -1 0 -230z m430 210 c193 -14 369 -28 393 -31 l42 -5 0 -205 0
-204 -415 0 -415 0 0 235 0 235 23 0 c12 0 180 -11 372 -25z m-1707 -23 l44
-7 -140 -110 c-102 -80 -159 -117 -209 -137 -37 -14 -70 -25 -71 -23 -2 2 31
67 75 144 l78 141 90 -1 c50 0 110 -4 133 -7z m2890 -134 c44 -79 79 -144 77
-146 -1 -1 -33 10 -71 24 -53 20 -102 52 -212 139 l-144 114 49 4 c26 2 87 4
134 5 l86 2 81 -142z m-2568 122 c0 -4 -35 -20 -77 -35 -43 -16 -141 -52 -217
-82 -76 -29 -140 -52 -142 -50 -2 2 44 42 104 90 l107 86 113 -1 c61 -1 112
-4 112 -8z m2280 -81 c63 -51 106 -90 95 -87 -45 13 -435 163 -435 168 0 3 51
7 113 8 l112 2 115 -91z m-2170 -124 l0 -205 -325 0 -325 0 0 83 0 83 318 121
c174 67 320 121 325 122 4 1 7 -91 7 -204z m2052 83 l298 -113 0 -87 0 -88
-305 0 -305 0 0 200 c0 110 3 200 7 200 4 0 141 -51 305 -112z"/>
</g>
</svg>
